<?xml version="1.0" encoding="utf-8"?>
<!-- Svg Vector Icons : http://www.onlinewebfonts.com/icon -->
<!DOCTYPE svg PUBLIC "-//W3C//DTD SVG 1.1//EN" "http://www.w3.org/Graphics/SVG/1.1/DTD/svg11.dtd">
<svg version="1.1" xmlns="http://www.w3.org/2000/svg" xmlns:xlink="http://www.w3.org/1999/xlink" x="0px" y="0px" viewBox="0 0 256 256" enable-background="new 0 0 256 256" xml:space="preserve">
<metadata> Svg Vector Icons : http://www.onlinewebfonts.com/icon </metadata>
<g><g><path fill="#000000" d="M128,94.3c-18.6,0-33.7,15.1-33.7,33.7c0,18.6,15.1,33.7,33.7,33.7c18.6,0,33.7-15.1,33.7-33.7C161.7,109.4,146.6,94.3,128,94.3z M128,144.9c-9.3,0-16.9-7.6-16.9-16.9c0-9.3,7.6-16.9,16.9-16.9c9.3,0,16.9,7.6,16.9,16.9C144.9,137.3,137.3,144.9,128,144.9z"/><path fill="#000000" d="M246,119.6h-17.3c-4-49.1-43.2-88.2-92.3-92.3V10h-16.9v17.3c-49.1,4-88.2,43.2-92.3,92.3H10v16.9h17.3c4.1,49.1,43.2,88.2,92.3,92.3V246h16.9v-17.3c49.1-4,88.2-43.2,92.3-92.3H246V119.6z M136.4,211.9v-16.4h-16.9v16.4c-39.8-4-71.4-35.7-75.4-75.4h16.4v-16.9H44.1c4-39.8,35.7-71.4,75.4-75.4v16.4h16.9V44.1c39.8,4,71.4,35.7,75.4,75.4h-16.4v16.9h16.4C207.9,176.2,176.2,207.9,136.4,211.9z"/></g></g>
</svg>